<svg xmlns="http://www.w3.org/2000/svg" xmlns:xlink="http://www.w3.org/1999/xlink" width="672" height="672" viewBox="0 0 504 504"><defs><symbol overflow="visible" id="b"><path d="M.879 0v-8.59h3.223c.656 0 1.18.09 1.578.262.39.176.703.441.93.8.226.364.34.743.34 1.137 0 .368-.102.711-.302 1.036-.199.328-.5.59-.898.785.516.152.914.414 1.195.777.278.371.418.805.422 1.3-.004.407-.09.782-.258 1.126-.171.347-.379.613-.629.797-.25.191-.566.332-.94.425C5.16-.047 4.7 0 4.155 0zm1.137-4.98h1.859c.5 0 .863-.032 1.082-.098.29-.086.504-.23.652-.43.141-.195.215-.445.22-.75a1.459 1.459 0 0 0-.204-.754 1.055 1.055 0 0 0-.586-.445c-.258-.078-.695-.117-1.305-.121H2.016zm0 3.964h2.14c.36.004.617-.011.774-.039a1.86 1.86 0 0 0 .652-.234c.176-.11.32-.266.434-.477a1.47 1.47 0 0 0 .171-.726c0-.313-.082-.59-.246-.832a1.333 1.333 0 0 0-.683-.5C4.96-3.918 4.543-3.964 4-3.97H2.016zm0 0"/></symbol><symbol overflow="visible" id="c"><path d="M4.867 0v-.914C4.38-.211 3.723.14 2.895.14c-.368 0-.711-.07-1.028-.211-.32-.14-.558-.317-.71-.532a1.942 1.942 0 0 1-.325-.78c-.047-.208-.07-.536-.066-.985v-3.856H1.82v3.45c-.004.554.02.925.067 1.117.062.277.203.496.422.652.214.164.48.242.796.238a1.7 1.7 0 0 0 .891-.242c.277-.164.473-.383.59-.664.113-.277.172-.683.172-1.219v-3.332h1.054V0zm0 0"/></symbol><symbol overflow="visible" id="d"><path d="M1.043 0v-5.402H.109v-.82h.934v-.66c0-.419.035-.731.113-.934.094-.274.274-.493.532-.664.257-.165.617-.25 1.078-.254.296.004.625.039.984.101l-.156.922a3.617 3.617 0 0 0-.625-.059c-.32 0-.547.07-.676.207-.137.137-.203.391-.2.766v.574h1.212v.82H2.094V0zm0 0"/></symbol><symbol overflow="visible" id="e"><path d="M4.852-.766c-.391.332-.77.567-1.13.704a3.296 3.296 0 0 1-1.16.203c-.687 0-1.21-.164-1.578-.5-.367-.329-.55-.758-.55-1.282 0-.304.066-.582.207-.832.136-.25.32-.453.546-.609.223-.152.477-.266.758-.348.207-.047.52-.101.938-.156.851-.102 1.476-.223 1.883-.363 0-.14.004-.23.004-.278 0-.421-.102-.726-.301-.906-.27-.238-.668-.355-1.2-.36-.5.005-.867.09-1.101.263-.234.175-.41.484-.52.925l-1.03-.14c.089-.442.245-.797.46-1.07.211-.266.52-.477.93-.626.402-.148.875-.222 1.414-.222.531 0 .96.062 1.293.187.332.125.578.285.734.473.156.191.266.43.328.719.032.18.047.504.051.968v1.407c-.004.984.02 1.605.067 1.863.046.262.136.508.27.746H5.061a2.225 2.225 0 0 1-.21-.766zm-.086-2.359c-.391.16-.965.293-1.727.398-.434.067-.738.137-.918.211a.963.963 0 0 0-.418.344.91.91 0 0 0-.144.5c0 .285.105.52.316.703.21.192.523.285.938.281.406.004.765-.085 1.082-.265a1.63 1.63 0 0 0 .699-.727c.113-.238.168-.59.172-1.054zm0 0"/></symbol><symbol overflow="visible" id="f"><path d="M.766 0v-8.59H1.82V0zm0 0"/></symbol><symbol overflow="visible" id="g"><path d="M.398-3.11c0-1.152.32-2.007.961-2.562.536-.46 1.188-.691 1.957-.691.856 0 1.555.281 2.098.843.54.563.809 1.336.813 2.32-.004.802-.125 1.434-.36 1.891A2.56 2.56 0 0 1 4.82-.239c-.46.255-.96.38-1.504.38-.875 0-1.582-.278-2.113-.836C.664-1.254.398-2.06.398-3.11zm1.086 0c-.004.801.172 1.4.52 1.79.344.398.781.593 1.312.593.524 0 .957-.199 1.305-.597.348-.399.524-1.004.524-1.824 0-.766-.176-1.348-.528-1.747a1.692 1.692 0 0 0-1.3-.597c-.532.004-.97.199-1.313.594-.348.398-.524.996-.52 1.789zm0 0"/></symbol><symbol overflow="visible" id="h"><path d="M.914 0v-8.59h1.164l4.516 6.746V-8.59H7.68V0H6.516L2.004-6.75V0zm0 0"/></symbol><symbol overflow="visible" id="i"><path d="M5.05-2.004l1.09.137c-.171.637-.492 1.129-.956 1.48-.465.352-1.059.528-1.778.528-.914 0-1.636-.278-2.168-.84C.7-1.254.434-2.043.438-3.06c-.004-1.046.265-1.859.808-2.437.535-.578 1.234-.867 2.098-.867.832 0 1.511.285 2.039.851.527.567.793 1.364.793 2.387 0 .066-.004.16-.004.281h-4.64c.03.688.226 1.211.577 1.574.348.364.782.543 1.301.543.387 0 .715-.101.992-.304.27-.203.489-.528.649-.973zM1.587-3.71h3.476c-.046-.516-.18-.91-.398-1.176a1.618 1.618 0 0 0-1.305-.61 1.67 1.67 0 0 0-1.222.49c-.332.323-.516.757-.551 1.296zm0 0"/></symbol><symbol overflow="visible" id="j"><path d="M1.938 0L.034-6.223h1.09l.992 3.59.367 1.336c.016-.062.121-.492.32-1.281l.993-3.645h1.086l.93 3.61.312 1.191.355-1.203 1.067-3.598H8.57L6.625 0H5.531L4.54-3.727l-.238-1.062L3.039 0zm0 0"/></symbol><symbol overflow="visible" id="l"><path d="M3.344 0v-3.64L.035-8.59h1.383L3.109-6c.309.484.602.969.875 1.453.258-.445.57-.95.938-1.516L6.586-8.59H7.91L4.484-3.64V0zm0 0"/></symbol><symbol overflow="visible" id="m"><path d="M.781 0v-6.223h.946v.942c.242-.438.464-.73.671-.871.204-.141.43-.211.68-.211.352 0 .715.113 1.082.34l-.363.976a1.544 1.544 0 0 0-.774-.226c-.23 0-.437.07-.62.207-.188.14-.321.332-.395.578a3.989 3.989 0 0 0-.172 1.23V0zm0 0"/></symbol><symbol overflow="visible" id="n"><path d="M.797 0v-8.59h1.055v4.899l2.496-2.532H5.71L3.336-3.914 5.953 0h-1.3l-2.06-3.18-.741.711V0zm0 0"/></symbol><symbol overflow="visible" id="o"><path d="M7.055-3.012l1.136.285c-.238.938-.668 1.649-1.285 2.141-.62.488-1.379.73-2.273.734-.926-.003-1.68-.187-2.258-.566-.582-.375-1.023-.922-1.324-1.637a5.818 5.818 0 0 1-.453-2.304c0-.895.168-1.672.511-2.34A3.49 3.49 0 0 1 2.57-8.215a4.32 4.32 0 0 1 2.082-.52c.86.005 1.582.223 2.168.657.586.441.992 1.055 1.227 1.844l-1.121.265c-.203-.62-.492-1.078-.867-1.367-.38-.285-.856-.426-1.43-.43-.66.004-1.215.16-1.656.477-.446.32-.754.746-.934 1.277a5.11 5.11 0 0 0-.27 1.645c0 .734.106 1.37.317 1.918.21.547.543.953.996 1.219.45.27.934.406 1.457.402.637.004 1.176-.18 1.617-.55.442-.364.742-.911.899-1.634zm0 0"/></symbol><symbol overflow="visible" id="p"><path d="M.797-7.375V-8.59h1.055v1.215zM.797 0v-6.223h1.055V0zm0 0"/></symbol><symbol overflow="visible" id="q"><path d="M3.094-.945l.152.933a3.912 3.912 0 0 1-.797.094c-.383 0-.68-.059-.89-.18a1.014 1.014 0 0 1-.446-.48C1.027-.773.984-1.188.984-1.82v-3.582H.211v-.82h.773v-1.544l1.047-.632v2.175h1.063v.82H2.03v3.637c-.004.305.016.496.055.582.039.086.098.157.184.207.082.051.203.075.363.075.11 0 .265-.012.46-.043zm0 0"/></symbol><symbol overflow="visible" id="r"><path d="M.742 2.398l-.117-.992c.23.063.434.094.605.094.235 0 .422-.04.563-.117a.996.996 0 0 0 .348-.328c.062-.106.171-.367.32-.785.02-.063.05-.149.094-.258L.195-6.223h1.133l1.297 3.606c.164.457.313.937.453 1.437.117-.48.262-.953.43-1.414L4.84-6.223h1.055L3.527.105c-.254.684-.453 1.153-.59 1.41-.19.348-.406.602-.644.766a1.625 1.625 0 0 1-.871.242 2.42 2.42 0 0 1-.68-.125zm0 0"/></symbol><symbol overflow="visible" id="s"><path d="M.89 0v-8.59h1.712l2.03 6.082c.184.57.321.996.415 1.274.094-.309.246-.77.453-1.38L7.559-8.59h1.527V0H7.992v-7.188L5.496 0H4.47L1.984-7.313V0zm0 0"/></symbol><symbol overflow="visible" id="t"><path d="M.79 0v-6.223h.952v.887c.453-.684 1.113-1.027 1.977-1.027.37 0 .715.07 1.035.203.312.137.55.312.707.527.156.223.266.48.328.781.04.196.059.54.059 1.024V0H4.793v-3.785c0-.43-.043-.75-.125-.965a1.03 1.03 0 0 0-.434-.508 1.419 1.419 0 0 0-.734-.191c-.453 0-.84.144-1.168.43-.328.285-.492.824-.488 1.62V0zm0 0"/></symbol><symbol overflow="visible" id="u"><path d="M.79 2.383v-8.606h.96v.809c.227-.316.484-.55.77-.711.28-.156.625-.238 1.035-.238.527 0 .996.136 1.406.41.402.273.71.66.922 1.16.207.5.308 1.047.312 1.637-.004.636-.117 1.21-.343 1.719-.23.515-.563.906-.997 1.171A2.548 2.548 0 0 1 3.48.141c-.351 0-.667-.075-.945-.223a2.146 2.146 0 0 1-.691-.563v3.028zm.956-5.461c0 .805.16 1.394.484 1.777.325.383.72.574 1.18.574.469 0 .867-.195 1.203-.593.332-.39.5-1.008.504-1.844-.004-.79-.168-1.383-.492-1.781-.328-.395-.715-.59-1.168-.594-.453.004-.852.215-1.195.633-.344.422-.516 1.031-.516 1.828zm0 0"/></symbol><symbol overflow="visible" id="v"><path d="M.367-1.86l1.047-.163c.055.421.219.742.488.964.266.223.641.332 1.121.332.485 0 .844-.097 1.079-.296.234-.196.351-.426.351-.696a.652.652 0 0 0-.312-.562c-.145-.09-.504-.211-1.079-.356C2.29-2.832 1.754-3 1.458-3.145a1.51 1.51 0 0 1-.68-.59 1.515 1.515 0 0 1-.23-.835 1.558 1.558 0 0 1 .187-.77c.125-.234.301-.433.52-.59.164-.117.387-.218.672-.304.281-.086.586-.13.91-.13.488 0 .914.071 1.285.212.367.14.64.332.816.574.176.242.297.562.368.96l-1.032.141c-.05-.32-.187-.57-.41-.75-.226-.18-.543-.27-.949-.27-.488 0-.832.083-1.039.243-.21.16-.316.348-.313.559-.003.14.04.261.133.37.078.114.215.208.403.282.105.04.414.129.933.27.742.199 1.262.363 1.559.488.289.129.523.312.695.555.168.242.25.542.254.902a1.833 1.833 0 0 1-.309.996 1.953 1.953 0 0 1-.89.719A3.193 3.193 0 0 1 3.03.14c-.812 0-1.43-.168-1.851-.504C.754-.7.484-1.195.367-1.86zm0 0"/></symbol><symbol overflow="visible" id="w"><path d="M.926 0v-8.59h2.957c.668 0 1.18.043 1.531.121.492.117.91.32 1.258.617.45.383.789.875 1.016 1.47.226.597.34 1.277.34 2.038 0 .657-.079 1.235-.231 1.739-.152.503-.348.921-.586 1.25-.238.335-.5.593-.781.78a3.258 3.258 0 0 1-1.024.43A5.896 5.896 0 0 1 4.023 0zm1.136-1.016h1.836c.563.004 1.008-.05 1.329-.156.32-.101.578-.25.773-.445.27-.27.477-.63.629-1.086.148-.453.226-1.008.226-1.656 0-.899-.148-1.586-.445-2.07-.297-.481-.656-.805-1.074-.97-.305-.117-.793-.175-1.469-.18H2.063zm0 0"/></symbol><symbol overflow="visible" id="G"><path d="M.926 0v-8.59h3.238c.57 0 1.008.027 1.309.082.422.07.773.207 1.058.403.285.199.516.472.692.828.172.359.257.75.261 1.172-.004.734-.234 1.355-.699 1.855-.469.508-1.308.758-2.52.758H2.064V0zm1.136-4.508h2.22c.73.004 1.253-.133 1.566-.41.308-.27.46-.656.465-1.152a1.596 1.596 0 0 0-.274-.922A1.332 1.332 0 0 0 5.32-7.5c-.195-.05-.55-.074-1.062-.078H2.062zm0 0"/></symbol><symbol overflow="visible" id="H"><path d="M.79 0v-8.59h1.054v3.082a2.358 2.358 0 0 1 1.867-.855c.453 0 .855.093 1.2.273.339.184.581.434.73.75.144.324.218.79.218 1.395V0H4.805v-3.945c0-.524-.117-.907-.344-1.149-.234-.234-.555-.355-.969-.36-.312.005-.61.087-.883.243a1.338 1.338 0 0 0-.59.66c-.12.278-.18.66-.175 1.145V0zm0 0"/></symbol><symbol overflow="visible" id="I"><path d="M4.828 0v-.785c-.398.617-.98.926-1.742.926-.496 0-.953-.137-1.367-.41A2.634 2.634 0 0 1 .75-1.415C.523-1.898.41-2.464.41-3.105c0-.622.102-1.184.309-1.692.207-.504.52-.89.933-1.16.414-.27.875-.406 1.387-.406.371 0 .707.082 1.004.238.293.16.531.363.715.617V-8.59h1.047V0zM1.492-3.105c-.004.796.164 1.394.504 1.789.332.394.73.59 1.192.59.46 0 .851-.188 1.171-.567.32-.375.48-.95.485-1.723-.004-.851-.168-1.476-.492-1.879-.332-.394-.735-.593-1.211-.597-.47.004-.864.195-1.176.574-.32.387-.477.988-.473 1.813zm0 0"/></symbol><symbol overflow="visible" id="Q"><path d="M4.852-2.281l1.039.136c-.118.72-.407 1.282-.871 1.68-.47.406-1.043.606-1.723.606-.852 0-1.535-.278-2.05-.836-.52-.555-.778-1.352-.778-2.39 0-.669.11-1.259.332-1.767a2.342 2.342 0 0 1 1.015-1.132c.454-.25.95-.38 1.489-.38.675 0 1.226.173 1.66.516.426.344.703.828.824 1.453l-1.023.16c-.102-.417-.274-.734-.52-.945-.25-.21-.55-.316-.902-.316-.535 0-.965.191-1.293.574-.332.383-.5.984-.496 1.805-.004.836.156 1.445.48 1.824.317.379.735.566 1.254.566.406 0 .754-.125 1.035-.378.278-.254.453-.645.528-1.176zm0 0"/></symbol><symbol overflow="visible" id="R"><path d="M.598.516l1.027.152c.04.312.16.543.355.691.262.196.618.293 1.075.293.484 0 .863-.097 1.129-.293.265-.195.445-.468.539-.82.054-.215.078-.664.074-1.352C4.336-.27 3.762 0 3.078 0c-.86 0-1.52-.309-1.988-.926C.62-1.543.387-2.28.387-3.148c0-.59.105-1.137.32-1.641.215-.5.527-.89.938-1.164.406-.274.886-.41 1.437-.41.734 0 1.34.297 1.816.89v-.75h.973v5.38c0 .968-.101 1.652-.297 2.058-.199.398-.511.719-.937.957-.43.23-.953.348-1.578.351-.743-.003-1.344-.171-1.801-.5C.8 1.687.582 1.187.598.516zm.87-3.739c-.003.817.16 1.414.489 1.785.324.38.73.567 1.219.563.484.004.89-.184 1.219-.559.328-.37.492-.957.492-1.754 0-.757-.172-1.332-.508-1.722-.34-.387-.746-.578-1.223-.582-.472.004-.87.195-1.195.574-.332.383-.496.945-.492 1.695zm0 0"/></symbol><symbol overflow="visible" id="x"><path d="M1.004-10.023h2.023v5.43c-.004.863.02 1.421.075 1.675.086.41.293.742.62.988.321.25.766.371 1.337.371.57 0 1.003-.117 1.3-.351.29-.235.465-.52.524-.863.058-.34.09-.91.09-1.704v-5.546h2.023v5.265c-.004 1.203-.059 2.055-.164 2.551-.113.5-.312.918-.605 1.258-.297.344-.692.617-1.18.816C6.55.07 5.91.168 5.12.172c-.96-.004-1.687-.11-2.18-.332C2.45-.38 2.06-.668 1.77-1.02a2.65 2.65 0 0 1-.567-1.113c-.137-.57-.203-1.418-.2-2.543zm0 0"/></symbol><symbol overflow="visible" id="y"><path d="M1.004 0v-1.922h1.922V0zm0 0"/></symbol><symbol overflow="visible" id="z"><path d="M.508-3.262l1.969-.191c.113.664.351 1.148.718 1.457.36.312.852.469 1.47.465.647.004 1.136-.137 1.472-.414.328-.274.496-.594.496-.97 0-.23-.07-.433-.211-.6-.14-.165-.383-.31-.727-.438a35.105 35.105 0 0 0-1.62-.438c-1.09-.265-1.852-.597-2.286-.988-.617-.55-.922-1.223-.922-2.02 0-.507.145-.984.434-1.43.289-.44.703-.78 1.25-1.015.543-.23 1.203-.344 1.972-.347 1.258.004 2.204.277 2.844.828.633.55.969 1.289 1 2.207l-2.023.086c-.09-.512-.278-.88-.559-1.106-.289-.222-.715-.336-1.281-.34-.59.004-1.05.121-1.379.36a.718.718 0 0 0-.32.625c-.004.238.093.437.297.605.25.219.87.446 1.859.672.98.234 1.707.473 2.184.723.468.25.84.59 1.109 1.02.266.429.398.96.402 1.593a3.005 3.005 0 0 1-.48 1.613A2.879 2.879 0 0 1 6.82-.188C6.234.055 5.508.176 4.64.18 3.376.176 2.403-.113 1.724-.7 1.043-1.28.637-2.136.508-3.261zm0 0"/></symbol><symbol overflow="visible" id="B"><path d="M2.441-5.047L.695-5.359c.196-.7.532-1.22 1.012-1.559.477-.332 1.191-.5 2.137-.504.851.004 1.488.106 1.91.305.418.203.71.46.887.77.168.316.254.886.257 1.718l-.023 2.242c-.004.64.027 1.11.094 1.414.058.305.176.63.343.973H5.415a5.44 5.44 0 0 1-.184-.566l-.07-.227a3.402 3.402 0 0 1-1.055.719c-.375.16-.773.238-1.19.238-.755 0-1.345-.203-1.77-.61C.71-.851.496-1.362.5-1.983c-.004-.407.094-.77.293-1.094.191-.32.469-.567.824-.738.352-.168.86-.32 1.528-.45.894-.168 1.515-.324 1.867-.472v-.192c-.004-.367-.094-.633-.274-.789-.183-.156-.527-.234-1.035-.234-.344 0-.613.07-.8.203-.196.137-.348.371-.462.703zm2.57 1.563c-.25.082-.64.18-1.171.293-.535.113-.883.222-1.043.332-.254.18-.379.406-.375.68a.92.92 0 0 0 .3.699c.2.199.454.296.762.292.348.004.68-.109.993-.343.234-.168.386-.383.46-.637.047-.164.07-.473.075-.934zm0 0"/></symbol><symbol overflow="visible" id="C"><path d="M3 0L.074-7.258h2.02L3.46-3.555l.394 1.239c.102-.313.168-.52.2-.622.062-.203.129-.41.203-.617L5.64-7.258h1.976L4.73 0zm0 0"/></symbol><symbol overflow="visible" id="D"><path d="M5.21-2.313l1.915.325c-.25.703-.64 1.234-1.168 1.601-.535.367-1.2.551-1.992.551-1.266 0-2.2-.41-2.8-1.238-.481-.656-.72-1.492-.72-2.5 0-1.203.313-2.145.942-2.824.629-.68 1.425-1.02 2.386-1.024 1.079.004 1.93.36 2.555 1.07.625.711.922 1.805.899 3.274H2.414c.012.574.164 1.015.461 1.332.293.316.664.476 1.11.473.3.003.55-.079.757-.247.203-.16.36-.425.469-.792zm.11-1.937c-.015-.555-.16-.98-.433-1.27a1.32 1.32 0 0 0-.996-.433c-.422 0-.77.152-1.04.457-.277.305-.413.723-.406 1.246zm0 0"/></symbol><symbol overflow="visible" id="E"><path d="M2.844 0H.922v-7.258h1.785v1.031c.305-.488.578-.808.824-.964.242-.149.52-.227.828-.23.438.003.86.124 1.266.359l-.594 1.675c-.324-.207-.625-.312-.902-.316-.27.004-.496.078-.684.223-.187.152-.336.418-.441.804-.11.39-.164 1.203-.16 2.434zm0 0"/></symbol><symbol overflow="visible" id="F"><path d="M.828.477l2.195.27c.036.25.118.425.25.526.18.133.47.204.864.204.5 0 .875-.079 1.129-.227a.975.975 0 0 0 .382-.484c.055-.16.082-.454.086-.883v-1.059C5.16-.39 4.438 0 3.563 0c-.977 0-1.75-.41-2.32-1.238C.796-1.887.573-2.7.573-3.672c0-1.215.293-2.144.88-2.785.585-.64 1.312-.961 2.183-.965.894.004 1.636.399 2.222 1.18v-1.016h1.797v6.512c-.004.86-.074 1.496-.21 1.922-.145.422-.344.754-.594.996-.258.238-.598.426-1.024.566-.43.133-.969.203-1.617.207-1.23-.004-2.102-.215-2.617-.632C1.078 1.887.82 1.352.82.71c0-.066 0-.145.008-.234zm1.715-4.258c0 .773.148 1.336.445 1.695.297.36.664.54 1.106.535.465.004.86-.18 1.187-.55.32-.364.485-.907.489-1.633-.004-.746-.16-1.305-.465-1.672a1.486 1.486 0 0 0-1.176-.547c-.465 0-.844.18-1.14.535-.298.36-.446.906-.446 1.637zm0 0"/></symbol><symbol overflow="visible" id="J"><path d="M5.508 0H3.59v-7.238a6.64 6.64 0 0 1-2.48 1.457v-1.746c.495-.16 1.042-.473 1.632-.934.586-.457.988-.988 1.211-1.601h1.555zm0 0"/></symbol><symbol overflow="visible" id="K"><path d="M3.844-10.063c.969.004 1.726.348 2.273 1.04.649.82.973 2.183.977 4.082-.004 1.898-.332 3.257-.985 4.086C5.566-.172 4.813.168 3.844.172 2.867.168 2.078-.203 1.48-.953.883-1.7.586-3.035.586-4.961c0-1.887.328-3.246.984-4.078.543-.68 1.301-1.02 2.274-1.024zm0 1.594a1.001 1.001 0 0 0-.625.223c-.188.152-.328.414-.422.793-.137.5-.203 1.34-.2 2.512-.003 1.18.055 1.984.176 2.421.118.442.27.735.45.88.18.148.386.222.62.218.231.004.438-.07.622-.223.18-.144.32-.41.422-.796.133-.489.199-1.32.199-2.5 0-1.172-.063-1.98-.18-2.422-.12-.438-.27-.73-.445-.883a.996.996 0 0 0-.617-.223zm0 0"/></symbol><symbol overflow="visible" id="L"><path d="M1.004 0v-10.023h1.922V0zm0 0"/></symbol><symbol overflow="visible" id="M"><path d="M.328-2.07l1.93-.297c.078.375.246.66.496.855.25.196.601.293 1.055.29.496.003.867-.087 1.12-.274a.614.614 0 0 0 .25-.512.533.533 0 0 0-.132-.363c-.102-.09-.317-.176-.645-.254-1.554-.34-2.535-.652-2.945-.938-.578-.39-.867-.933-.863-1.632-.004-.63.246-1.157.746-1.586.496-.422 1.265-.637 2.308-.64.993.003 1.73.163 2.215.484.48.324.813.804 1 1.433l-1.812.336a1.14 1.14 0 0 0-.442-.648c-.218-.149-.527-.223-.925-.227-.508.004-.872.074-1.086.211-.149.105-.22.234-.22.39 0 .141.063.258.192.348.168.133.766.313 1.793.543 1.02.235 1.735.52 2.145.852.398.344.597.82.601 1.43-.004.667-.28 1.238-.836 1.714-.558.48-1.378.72-2.464.72-.993 0-1.778-.2-2.352-.603A2.733 2.733 0 0 1 .328-2.07zm0 0"/></symbol><symbol overflow="visible" id="N"><path d="M4.336-7.258v1.531H3.023v2.922c0 .598.012.946.036 1.04.023.1.078.18.171.242a.54.54 0 0 0 .325.093c.175 0 .433-.058.773-.183l.164 1.488c-.449.195-.957.29-1.52.29a2.36 2.36 0 0 1-.937-.173c-.281-.113-.484-.265-.61-.453-.132-.184-.222-.434-.269-.75-.047-.223-.066-.672-.062-1.351v-3.165H.21v-1.53h.883v-1.446l1.93-1.121v2.566zm0 0"/></symbol><symbol overflow="visible" id="O"><path d="M7.336-5.113l-1.895.34c-.066-.375-.21-.66-.437-.852-.227-.191-.52-.285-.875-.29-.48.005-.863.169-1.149.497-.285.332-.425.887-.425 1.66 0 .863.144 1.469.433 1.824.29.356.676.536 1.168.532.36.004.66-.102.895-.309.23-.207.394-.562.492-1.07l1.887.32C7.234-1.594 6.855-.938 6.3-.5c-.558.445-1.3.664-2.234.664-1.062 0-1.91-.332-2.539-1.004C.895-1.504.578-2.434.582-3.625c-.004-1.195.313-2.129.95-2.797.628-.664 1.488-.996 2.57-1 .882.004 1.585.195 2.109.57.52.383.894.961 1.125 1.739zm0 0"/></symbol><symbol overflow="visible" id="P"><path d="M1.004-8.242v-1.781h1.922v1.78zm0 8.242v-7.258h1.922V0zm0 0"/></symbol><symbol overflow="visible" id="S"><path d="M.992 0v-10.023H4.02l1.816 6.835 1.8-6.835h3.036V0H8.789v-7.89L6.801 0H4.85l-1.98-7.89V0zm0 0"/></symbol><symbol overflow="visible" id="T"><path d="M7.664 0H5.88v-1.066c-.3.414-.649.722-1.05.925a2.68 2.68 0 0 1-1.22.305c-.836 0-1.55-.336-2.144-1.008-.594-.672-.89-1.61-.89-2.812 0-1.23.288-2.164.866-2.805.579-.637 1.309-.957 2.196-.96.808.003 1.511.339 2.105 1.007v-3.61h1.922zM2.535-3.79c-.004.778.106 1.34.324 1.685.305.507.735.757 1.297.753.438.004.817-.183 1.13-.562.308-.375.46-.938.464-1.688-.004-.832-.152-1.433-.453-1.8a1.43 1.43 0 0 0-1.156-.551c-.457 0-.84.183-1.145.543-.312.367-.465.906-.46 1.62zm0 0"/></symbol><symbol overflow="visible" id="U"><path d="M.563-3.734c0-.633.156-1.25.468-1.848a3.202 3.202 0 0 1 1.336-1.367 4.047 4.047 0 0 1 1.934-.473c1.094.004 1.992.36 2.699 1.07.7.711 1.05 1.614 1.055 2.704-.004 1.097-.36 2.007-1.067 2.73C6.278-.195 5.387.164 4.312.164c-.664 0-1.3-.148-1.902-.45a3.059 3.059 0 0 1-1.379-1.323C.72-2.188.563-2.895.563-3.734zm1.968.105c0 .723.168 1.274.512 1.652.336.387.758.579 1.262.575.5.004.922-.188 1.261-.575.34-.378.508-.937.512-1.668-.004-.71-.172-1.257-.512-1.64a1.622 1.622 0 0 0-1.261-.574 1.61 1.61 0 0 0-1.262.574c-.344.383-.512.937-.512 1.656zm0 0"/></symbol><symbol overflow="visible" id="V"><path d="M7.61 0H5.686v-3.703c-.003-.785-.046-1.293-.125-1.524a1.155 1.155 0 0 0-.398-.535 1.165 1.165 0 0 0-.664-.191c-.336 0-.637.094-.898.273-.266.188-.446.43-.543.727-.098.305-.149.86-.145 1.664V0H.992v-7.258h1.781v1.063c.633-.813 1.434-1.223 2.395-1.227.422.004.809.082 1.16.23.352.157.617.348.797.583a2.2 2.2 0 0 1 .379.808c.066.301.101.73.105 1.29zm0 0"/></symbol><symbol overflow="visible" id="W"><path d="M.367-3.105c-.004-.743.07-1.34.227-1.797.148-.453.379-.805.683-1.051.301-.246.68-.367 1.141-.371.336.004.633.07.89.203.255.137.465.332.63.59.164.258.292.57.39.937.094.367.14.864.145 1.489-.004.738-.078 1.335-.23 1.789-.153.457-.38.808-.68 1.054-.305.246-.688.367-1.145.371-.61-.004-1.086-.218-1.43-.656-.418-.52-.625-1.375-.62-2.558zm.793 0c0 1.035.121 1.726.363 2.066.243.344.54.512.895.512s.656-.172.898-.516c.243-.344.364-1.031.364-2.062 0-1.04-.121-1.727-.364-2.067-.242-.34-.546-.512-.906-.512s-.64.153-.851.45c-.266.39-.399 1.097-.399 2.129zm0 0"/></symbol><symbol overflow="visible" id="X"><path d="M3.277 0h-.773v-4.93c-.188.18-.43.356-.73.535-.305.18-.579.313-.817.399v-.746A4.5 4.5 0 0 0 2.09-5.48c.324-.29.555-.57.691-.844h.496zm0 0"/></symbol><symbol overflow="visible" id="Y"><path d="M4.43-.742V0H.266a1.328 1.328 0 0 1 .09-.54c.105-.28.273-.558.507-.835.23-.273.57-.59 1.016-.953.683-.559 1.144-1.004 1.387-1.336.234-.324.355-.637.359-.93a1.063 1.063 0 0 0-.328-.773c-.223-.211-.508-.317-.856-.317-.375 0-.671.114-.894.336-.227.223-.34.532-.34.926l-.793-.082c.05-.59.254-1.039.613-1.351.352-.31.828-.465 1.43-.47.602.005 1.082.173 1.434.505.351.336.527.75.53 1.242a1.98 1.98 0 0 1-.155.746c-.102.242-.274.5-.512.77-.242.269-.64.636-1.192 1.105-.468.39-.765.656-.898.797-.133.14-.242.281-.324.418zm0 0"/></symbol><symbol overflow="visible" id="Z"><path d="M1.309 0v-12.883h4.175c1.582.004 2.614.067 3.094.192.738.195 1.356.617 1.856 1.261.496.649.746 1.485.746 2.508 0 .793-.145 1.457-.43 1.996-.29.54-.652.965-1.094 1.27a3.648 3.648 0 0 1-1.351.61c-.625.128-1.524.19-2.696.187H3.91V0zM3.91-10.703v3.656h1.426c1.023.004 1.707-.062 2.055-.203.343-.133.617-.344.812-.633.195-.281.293-.617.297-1.004-.004-.465-.14-.851-.414-1.16a1.852 1.852 0 0 0-1.047-.57c-.312-.055-.934-.082-1.871-.086zm0 0"/></symbol><symbol overflow="visible" id="aa"><path d="M.719-4.797a4.99 4.99 0 0 1 .605-2.383 4.191 4.191 0 0 1 1.719-1.758c.738-.402 1.566-.605 2.484-.609 1.41.004 2.57.461 3.473 1.379.898.918 1.348 2.078 1.352 3.473-.004 1.418-.461 2.59-1.368 3.515C8.07-.25 6.926.21 5.547.21c-.86 0-1.676-.19-2.45-.577A3.98 3.98 0 0 1 1.325-2.07C.918-2.813.714-3.723.72-4.797zm2.531.129c-.004.93.215 1.64.66 2.129.438.496.98.742 1.63.738.64.004 1.179-.242 1.616-.738.434-.488.653-1.203.657-2.145-.004-.91-.223-1.613-.657-2.109-.437-.488-.976-.734-1.617-.738a2.117 2.117 0 0 0-1.629.738c-.445.496-.664 1.203-.66 2.125zm0 0"/></symbol><symbol overflow="visible" id="ab"><path d="M1.293 0v-12.883h2.469V0zm0 0"/></symbol><symbol overflow="visible" id="ac"><path d="M1.293-10.602v-2.28h2.469v2.28zM1.293 0v-9.336h2.469V0zm0 0"/></symbol><symbol overflow="visible" id="ad"><path d="M9.43-6.574l-2.434.441c-.082-.484-.27-.851-.559-1.097-.292-.247-.667-.368-1.128-.372-.618.004-1.11.215-1.473.637-.367.426-.55 1.137-.547 2.13-.004 1.112.184 1.894.555 2.35.37.458.87.688 1.5.684.468.004.851-.129 1.152-.398.297-.266.508-.727.633-1.38l2.426.415C9.3-2.047 8.816-1.204 8.102-.641 7.387-.07 6.43.211 5.23.211c-1.37 0-2.46-.43-3.27-1.293-.812-.86-1.218-2.05-1.214-3.574-.004-1.54.406-2.739 1.223-3.602.812-.855 1.914-1.285 3.304-1.289 1.133.004 2.036.246 2.711.735.668.492 1.149 1.238 1.446 2.238zm0 0"/></symbol><symbol overflow="visible" id="ae"><path d="M6.695-2.969l2.461.41C8.84-1.652 8.34-.965 7.66-.496 6.973-.023 6.121.21 5.098.21 3.473.21 2.27-.316 1.492-1.38.875-2.227.566-3.3.57-4.598.566-6.14.973-7.352 1.781-8.23c.809-.875 1.832-1.313 3.07-1.317 1.387.004 2.481.461 3.286 1.379.8.918 1.183 2.324 1.152 4.215H3.102c.015.734.214 1.305.597 1.71.38.411.856.614 1.426.61.383.004.707-.101.973-.316.261-.207.46-.547.597-1.02zm.14-2.5c-.019-.71-.202-1.254-.55-1.629A1.748 1.748 0 0 0 5-7.656c-.543.004-.988.199-1.336.59-.355.394-.527.93-.516 1.597zm0 0"/></symbol><symbol overflow="visible" id="ag"><path d="M1.203 0v-12.883h2.469v6.836l2.894-3.289h3.04L6.413-5.922 9.836 0H7.172L4.824-4.191 3.672-2.988V0zm0 0"/></symbol><symbol overflow="visible" id="ah"><path d="M9.781 0H7.312v-4.766c0-1-.054-1.652-.16-1.953a1.419 1.419 0 0 0-.511-.691 1.553 1.553 0 0 0-.86-.246c-.43.004-.812.12-1.152.351-.34.239-.574.551-.7.934-.128.39-.19 1.105-.187 2.144V0H1.273v-9.336H3.57v1.375c.809-1.055 1.836-1.582 3.075-1.586.543.004 1.039.102 1.492.297.449.2.789.45 1.023.75.227.309.39.656.485 1.04.09.39.132.94.136 1.66zm0 0"/></symbol><symbol overflow="visible" id="ai"><path d="M1.063.617l2.82.34c.043.324.152.55.328.676.23.176.598.265 1.105.265.641 0 1.125-.097 1.45-.289.214-.132.379-.34.492-.625.074-.207.113-.582.117-1.132v-1.364C6.633-.504 5.699 0 4.578 0 3.32 0 2.328-.527 1.602-1.59 1.023-2.426.738-3.469.738-4.719c0-1.562.375-2.758 1.13-3.586.75-.824 1.687-1.238 2.808-1.242 1.152.004 2.101.512 2.855 1.524v-1.313h2.313v8.379c0 1.102-.094 1.922-.274 2.469-.187.543-.441.968-.765 1.281-.332.309-.77.55-1.313.73-.55.172-1.242.262-2.078.266-1.586-.004-2.71-.273-3.367-.812-.664-.543-.992-1.23-.992-2.063 0-.086 0-.187.008-.297zM3.27-4.859c0 .992.19 1.714.574 2.175.383.461.855.692 1.422.688.601.004 1.109-.23 1.527-.707.414-.469.625-1.168.625-2.094 0-.965-.2-1.683-.598-2.156a1.923 1.923 0 0 0-1.511-.703 1.844 1.844 0 0 0-1.465.691C3.46-6.5 3.27-5.797 3.27-4.859zm0 0"/></symbol><symbol overflow="visible" id="aj"><path d="M.422-2.664l2.476-.375c.106.48.32.844.641 1.094.32.25.77.375 1.356.37.632.005 1.113-.113 1.44-.35a.792.792 0 0 0 .33-.66.676.676 0 0 0-.18-.466c-.126-.113-.4-.222-.825-.324-1.992-.438-3.258-.836-3.789-1.203C1.13-5.078.761-5.781.766-6.68c-.004-.804.316-1.484.957-2.039.636-.55 1.625-.824 2.972-.828 1.274.004 2.223.211 2.844.625.621.418 1.05 1.035 1.285 1.848l-2.328.43a1.509 1.509 0 0 0-.57-.833c-.281-.195-.676-.293-1.188-.293-.652 0-1.117.094-1.398.274-.188.133-.281.297-.281.5 0 .176.082.328.246.45.222.167.992.398 2.308.694 1.313.301 2.23.668 2.754 1.098.516.445.774 1.055.774 1.836 0 .86-.36 1.598-1.075 2.207-.714.617-1.773.922-3.171.922-1.274 0-2.278-.258-3.02-.773A3.545 3.545 0 0 1 .422-2.664zm0 0"/></symbol><symbol overflow="visible" id="ak"><path d="M1.223-9.336h2.3v1.375a3.516 3.516 0 0 1 1.211-1.144 3.38 3.38 0 0 1 1.7-.442c1.082.004 2 .43 2.757 1.277.754.852 1.133 2.036 1.137 3.551-.004 1.563-.387 2.774-1.144 3.633C8.418-.219 7.496.211 6.414.211c-.52 0-.988-.102-1.402-.309-.422-.203-.86-.554-1.32-1.054V3.55h-2.47zm2.441 4.512C3.66-3.77 3.871-2.996 4.29-2.5c.414.504.918.754 1.52.75.57.004 1.05-.227 1.433-.688.38-.46.567-1.214.57-2.265-.003-.977-.199-1.703-.59-2.18-.394-.472-.878-.71-1.456-.71-.606 0-1.11.234-1.504.698-.403.47-.602 1.16-.598 2.07zm0 0"/></symbol><symbol overflow="visible" id="al"><path d="M3.656 0H1.187v-9.336H3.48v1.328c.391-.62.743-1.035 1.06-1.238a1.96 1.96 0 0 1 1.07-.3c.558.003 1.1.16 1.624.468L6.47-6.926c-.418-.265-.805-.398-1.16-.402-.348.004-.641.098-.88.285-.242.191-.433.535-.566 1.031-.14.5-.207 1.543-.207 3.13zm0 0"/></symbol><symbol overflow="visible" id="am"><path d="M7.086 0H4.613v-9.309a8.434 8.434 0 0 1-3.191 1.871v-2.238c.644-.207 1.344-.61 2.101-1.199.75-.586 1.27-1.273 1.555-2.063h2.008zm0 0"/></symbol><symbol overflow="visible" id="an"><path d="M1.23-2.469H3.7v1.766C3.694.007 3.636.57 3.515.988c-.125.41-.36.782-.7 1.114-.343.324-.777.582-1.304.773l-.485-1.02c.493-.167.848-.394 1.063-.68.207-.288.32-.679.336-1.175H1.23zm0 0"/></symbol><symbol overflow="visible" id="ao"><path d="M4.938-12.938c1.246 0 2.222.446 2.93 1.336.835 1.055 1.253 2.805 1.257 5.247-.004 2.44-.426 4.195-1.266 5.257C7.156-.218 6.184.215 4.938.22 3.683.215 2.671-.261 1.905-1.227c-.77-.96-1.152-2.68-1.148-5.156-.004-2.422.418-4.168 1.265-5.234.692-.88 1.664-1.32 2.914-1.32zm0 2.047c-.301.004-.567.098-.797.286-.239.19-.422.535-.547 1.027-.172.64-.254 1.715-.254 3.223 0 1.515.074 2.554.226 3.117.153.566.344.941.579 1.129.226.187.492.28.793.28.296 0 .562-.093.8-.284.23-.188.414-.528.547-1.024.168-.629.254-1.703.254-3.218 0-1.508-.078-2.547-.23-3.114-.153-.566-.344-.945-.575-1.136a1.268 1.268 0 0 0-.796-.286zm0 0"/></symbol><symbol overflow="visible" id="ap"><path d="M7.438 0v-1.398c-.344.503-.79.898-1.344 1.18a3.74 3.74 0 0 1-1.75.429C3.71.21 3.148.074 2.652-.203c-.5-.274-.859-.66-1.082-1.16-.222-.496-.336-1.184-.332-2.067v-5.906h2.473v4.29c-.004 1.316.043 2.12.133 2.413.09.301.254.535.496.703.238.176.543.262.918.258a1.93 1.93 0 0 0 1.133-.344 1.77 1.77 0 0 0 .683-.859c.117-.34.18-1.18.184-2.523v-3.938H9.73V0zm0 0"/></symbol><symbol overflow="visible" id="aq"><path d="M3.137-6.484L.898-6.891c.247-.898.68-1.566 1.297-2.004.614-.433 1.528-.648 2.743-.652 1.101.004 1.921.133 2.464.395.535.261.914.593 1.137.992.215.402.324 1.14.328 2.21l-.023 2.884c-.004.824.035 1.43.117 1.816.074.39.223.805.445 1.25H6.961a7.017 7.017 0 0 1-.238-.73c-.043-.145-.07-.243-.086-.29-.426.41-.88.72-1.356.922a3.869 3.869 0 0 1-1.539.309c-.96 0-1.719-.258-2.27-.781C.915-1.086.638-1.746.642-2.547a2.604 2.604 0 0 1 .379-1.41c.25-.41.601-.727 1.058-.95.45-.218 1.106-.413 1.965-.577 1.152-.215 1.95-.414 2.398-.606v-.246c-.003-.469-.12-.809-.351-1.016-.238-.199-.68-.3-1.324-.304-.446.004-.79.09-1.032.261-.25.172-.449.477-.597.91zm3.304 2c-.32.109-.82.234-1.503.382-.688.149-1.137.293-1.344.43-.328.23-.489.52-.485.867-.004.348.125.649.387.899.254.254.582.379.988.375.438.004.864-.145 1.274-.438.293-.222.488-.492.586-.816.062-.207.093-.61.097-1.207zm0 0"/></symbol><symbol overflow="visible" id="ar"><path d="M5.57-9.336v1.969H3.883v3.765c-.004.762.012 1.207.047 1.332.03.13.105.23.222.313a.67.67 0 0 0 .418.121c.227.004.555-.078.992-.238l.211 1.918C5.195.09 4.547.21 3.824.21c-.449 0-.851-.074-1.207-.223-.36-.148-.62-.34-.785-.582-.168-.234-.285-.554-.348-.96-.054-.282-.078-.864-.078-1.743v-4.07H.273v-1.969h1.133v-1.851l2.477-1.442v3.293zm0 0"/></symbol><symbol overflow="visible" id="as"><path d="M4.21 0v-10.703H.388v-2.18h10.238v2.18H6.812V0zm0 0"/></symbol><symbol overflow="visible" id="at"><path d="M3.754-12.883v4.735c.793-.93 1.746-1.395 2.855-1.399.567.004 1.079.11 1.536.317.457.214.8.484 1.035.808.23.332.386.695.472 1.09.082.402.125 1.02.13 1.855V0h-2.47v-4.93c0-.976-.046-1.597-.14-1.863a1.283 1.283 0 0 0-.496-.629c-.242-.152-.54-.23-.895-.234a2.11 2.11 0 0 0-1.097.3c-.325.204-.559.504-.707.903-.153.406-.227.996-.223 1.777V0H1.28v-12.883zm0 0"/></symbol><symbol overflow="visible" id="au"><path d="M.21-9.336h1.372v-.703c0-.781.082-1.367.25-1.754.164-.387.473-.703.922-.945.45-.242 1.016-.364 1.703-.367.7.003 1.387.109 2.066.316l-.335 1.723a5.376 5.376 0 0 0-1.133-.141c-.364.004-.621.09-.774.254-.156.172-.234.492-.23.96v.657h1.847v1.945H4.051V0H1.582v-7.39H.211zm0 0"/></symbol><symbol overflow="visible" id="av"><path d="M3.86 0L.097-9.336h2.59L4.444-4.57l.512 1.59c.133-.403.215-.668.254-.801.078-.258.168-.524.266-.79L7.25-9.335h2.54L6.081 0zm0 0"/></symbol><symbol overflow="visible" id="aw"><path d="M9.852 0H7.559v-1.371c-.383.535-.836.933-1.352 1.191a3.466 3.466 0 0 1-1.566.39c-1.075 0-1.996-.429-2.758-1.296C1.117-1.946.738-3.152.738-4.703c0-1.578.371-2.781 1.114-3.606.742-.824 1.683-1.234 2.824-1.238 1.043.004 1.945.438 2.707 1.305v-4.64h2.469zm-6.59-4.867c-.004.996.133 1.715.41 2.16.398.644.957.969 1.672.965.566.004 1.047-.238 1.449-.723.394-.48.594-1.203.598-2.168-.004-1.07-.196-1.844-.582-2.316a1.854 1.854 0 0 0-1.48-.707c-.595.004-1.087.238-1.477.699-.399.469-.594 1.164-.59 2.09zm0 0"/></symbol><symbol overflow="visible" id="ax"><path d="M.125-9.336H2.75l2.234 6.629 2.18-6.629H9.72L6.426-.352l-.59 1.625c-.219.543-.426.961-.621 1.25a2.732 2.732 0 0 1-.676.696 3.12 3.12 0 0 1-.941.418 5.193 5.193 0 0 1-1.262.152A7.157 7.157 0 0 1 .94 3.641L.72 1.703c.386.074.734.113 1.047.117.57-.004.996-.172 1.273-.508.273-.335.484-.765.633-1.285zm0 0"/></symbol><symbol overflow="visible" id="ay"><path d="M1.11-9.336h2.273v1.277c.812-.988 1.785-1.484 2.91-1.488.594.004 1.11.125 1.555.371.437.25.8.625 1.082 1.117.41-.492.851-.867 1.328-1.117.472-.246.98-.367 1.52-.37.683.003 1.261.14 1.738.417.472.281.828.691 1.066 1.227.168.402.254 1.047.254 1.933V0h-2.469v-5.336c-.004-.922-.09-1.52-.258-1.793-.23-.348-.582-.523-1.054-.527-.348.004-.672.11-.973.316-.309.215-.527.524-.66.93-.137.406-.207 1.05-.203 1.926V0H6.75v-5.117c0-.903-.047-1.488-.133-1.754-.094-.262-.23-.457-.41-.59-.187-.125-.437-.191-.75-.195a1.838 1.838 0 0 0-1.027.308 1.71 1.71 0 0 0-.657.891c-.132.387-.199 1.027-.195 1.922V0H1.11zm0 0"/></symbol><symbol overflow="visible" id="az"><path d="M1.293 0v-2.469h2.469V0zm0 0"/></symbol><symbol overflow="visible" id="aA"><path d="M1.328 0v-12.883h8.832v2.18H3.93v3.047h5.379v2.18h-5.38V0zm0 0"/></symbol><symbol overflow="visible" id="aB"><path d="M.105 0l3.368-4.809L.246-9.336h3.016l1.652 2.57 1.738-2.57h2.903L6.39-4.914 9.844 0H6.813L4.913-2.89 2.996 0zm0 0"/></symbol><symbol overflow="visible" id="aC"><path d="M3.031 0L.078-9.336h2.399l1.75 6.117 1.609-6.117h2.383l1.554 6.117 1.786-6.117h2.433L10.996 0H8.621L7.016-6.004 5.43 0zm0 0"/></symbol><symbol overflow="visible" id="aD"><path d="M5.96-12.883h2.59v8.156c-.003 1.067-.097 1.887-.28 2.461A3.508 3.508 0 0 1 6.898-.46c-.664.453-1.535.676-2.617.68C3.008.215 2.027-.137 1.344-.848.656-1.555.312-2.598.309-3.98l2.449-.282c.027.742.137 1.262.328 1.563.277.465.703.695 1.281.695s.988-.164 1.23-.496c.239-.328.36-1.016.364-2.063zm0 0"/></symbol><symbol overflow="visible" id="aE"><path d="M9.105-2.293V0H.45c.09-.867.371-1.688.844-2.465.465-.773 1.39-1.805 2.777-3.09 1.11-1.035 1.793-1.738 2.047-2.11.336-.507.504-1.01.508-1.51-.004-.548-.152-.97-.445-1.27-.297-.293-.703-.442-1.223-.446-.516.004-.926.16-1.23.47-.305.312-.48.827-.528 1.546l-2.46-.25c.144-1.355.6-2.332 1.378-2.926.77-.59 1.738-.886 2.903-.886 1.27 0 2.27.343 2.996 1.027.726.687 1.09 1.539 1.09 2.558 0 .582-.106 1.137-.313 1.66-.211.528-.54 1.075-.988 1.645-.301.383-.84.934-1.617 1.645-.782.718-1.278 1.191-1.481 1.422a4.19 4.19 0 0 0-.504.687zm0 0"/></symbol><symbol overflow="visible" id="aF"><path d="M.676-3.418l2.39-.293c.07.613.278 1.078.614 1.398a1.68 1.68 0 0 0 1.215.485c.507 0 .937-.192 1.289-.578.343-.387.52-.91.523-1.567-.004-.62-.172-1.113-.504-1.476a1.625 1.625 0 0 0-1.219-.543c-.32.004-.699.066-1.132.183l.27-2.011c.663.02 1.175-.125 1.53-.438.348-.305.524-.715.528-1.226-.004-.43-.133-.774-.387-1.036-.262-.253-.606-.382-1.027-.386a1.498 1.498 0 0 0-1.082.441c-.301.293-.485.723-.547 1.281L.859-9.57c.157-.778.395-1.403.715-1.867.317-.465.762-.829 1.336-1.098.57-.266 1.211-.402 1.926-.402 1.207 0 2.18.386 2.914 1.16.602.632.902 1.347.906 2.144-.004 1.133-.62 2.035-1.851 2.707.734.16 1.324.516 1.77 1.067.437.55.66 1.214.663 1.992-.004 1.133-.418 2.097-1.242 2.89C7.168-.18 6.141.215 4.914.22 3.746.215 2.777-.117 2.012-.785 1.238-1.457.793-2.332.676-3.418zm0 0"/></symbol><symbol overflow="visible" id="aG"><path d="M1.3-12.883h4.755c1.07.004 1.89.086 2.453.242a4.391 4.391 0 0 1 1.941 1.188c.535.57.946 1.265 1.23 2.09.278.824.419 1.84.423 3.043-.004 1.066-.133 1.98-.395 2.742-.324.941-.785 1.7-1.379 2.277-.457.442-1.066.785-1.828 1.028C7.922-.09 7.152 0 6.195 0H1.301zm2.602 2.18v8.531h1.942c.722.004 1.25-.035 1.574-.121.422-.102.77-.281 1.05-.535.274-.25.5-.664.68-1.242.172-.575.262-1.364.266-2.364-.004-.996-.094-1.757-.266-2.293-.18-.53-.425-.949-.738-1.246-.32-.297-.719-.5-1.203-.609-.363-.078-1.078-.117-2.137-.121zm0 0"/></symbol><symbol overflow="visible" id="aH"><path d="M9.133-9.73l-2.39.265c-.063-.488-.216-.851-.462-1.09-.246-.23-.566-.347-.953-.351-.527.004-.969.238-1.328.703-.363.473-.59 1.445-.68 2.926.614-.727 1.38-1.09 2.297-1.09 1.028 0 1.91.394 2.649 1.18.73.785 1.097 1.796 1.101 3.039-.004 1.32-.39 2.378-1.16 3.171C7.43-.18 6.437.215 5.23.22 3.926.215 2.855-.285 2.02-1.297 1.18-2.305.762-3.96.766-6.266c-.004-2.359.433-4.062 1.308-5.105.871-1.043 2.004-1.566 3.403-1.566.976 0 1.785.277 2.43.824.636.55 1.046 1.343 1.226 2.383zM3.53-4.344c-.004.809.18 1.43.555 1.864.367.437.789.652 1.266.652.453 0 .835-.176 1.144-.535.3-.352.453-.938.457-1.758-.004-.836-.168-1.45-.492-1.84-.332-.387-.742-.582-1.23-.586-.481.004-.883.188-1.208.559-.332.375-.496.926-.492 1.644zm0 0"/></symbol><symbol overflow="visible" id="aI"><path d="M1.766-6.863v-2.473h2.468v2.473zm0 6.863v-2.469h2.468V0zm0 0"/></symbol><clipPath id="a"><path d="M167.73 85.785h331.793v381.617H167.73zm0 0"/></clipPath></defs><path fill="#fff" d="M0 0h504v504H0z"/><path fill="#fff" d="M0 0h504v504H0z"/><path d="M0 504h504V0H0zm0 0" fill="none" stroke-width="1.067" stroke-linecap="round" stroke-linejoin="round" stroke="#fff" stroke-miterlimit="10"/><g clip-path="url(#a)"><path d="M167.73 466.398h330.793V85.781H167.73zm0 0" fill="#fff"/><path d="M241.203 466.398V85.785M358.078 466.398V85.785M474.953 466.398V85.785" fill="none" stroke-width=".533" stroke-linejoin="round" stroke="#ebebeb" stroke-miterlimit="10"/><path d="M167.73 444.012h330.79M167.73 406.695h330.79M167.73 369.379h330.79M167.73 332.066h330.79M167.73 294.75h330.79M167.73 257.434h330.79M167.73 220.121h330.79M167.73 182.805h330.79M167.73 145.488h330.79M167.73 108.176h330.79M182.766 466.398V85.785M299.64 466.398V85.785M416.516 466.398V85.785" fill="none" stroke-width="1.067" stroke-linejoin="round" stroke="#ebebeb" stroke-miterlimit="10"/><path d="M182.766 460.805v-33.582zm0 0" fill="#ff0"/><path d="M182.766 423.488h85.785v-33.582h-85.785zm0 0" fill="#ffcb00"/><path d="M182.766 386.172H335.52V352.59H182.766zm0 0" fill="#ffa000"/><path d="M182.766 348.855h163.742v-33.582H182.766zm0 0" fill="#f90"/><path d="M182.766 311.543h169.937v-33.582H182.766zm0 0" fill="#ff9500"/><path d="M182.766 274.227h176.129v-33.582h-176.13zm0 0" fill="#ff9000"/><path d="M182.766 236.91h196.468v-33.582H182.766zm0 0" fill="#ff8200"/><path d="M182.766 199.598H425.75v-33.582H182.766zm0 0" fill="#ff5d00"/><path d="M182.766 162.281H442.93V128.7H182.766zm0 0" fill="#ff4d00"/><path d="M182.766 124.965h300.718V91.383H182.766zm0 0" fill="red"/><path d="M167.73 466.398h330.793V85.781H167.73zm0 0" fill="none" stroke-width="1.067" stroke-linecap="round" stroke-linejoin="round" stroke="#333" stroke-miterlimit="10"/></g><use xlink:href="#b" x="125.438" y="448.305"/><use xlink:href="#c" x="133.441" y="448.305"/><use xlink:href="#d" x="140.115" y="448.305"/><use xlink:href="#d" x="143.449" y="448.305"/><use xlink:href="#e" x="146.783" y="448.305"/><use xlink:href="#f" x="153.457" y="448.305"/><use xlink:href="#g" x="156.123" y="448.305"/><use xlink:href="#h" x="86.781" y="410.992"/><use xlink:href="#i" x="95.447" y="410.992"/><use xlink:href="#j" x="102.121" y="410.992"/><use xlink:href="#k" x="110.787" y="410.992"/><use xlink:href="#l" x="114.121" y="410.992"/><use xlink:href="#g" x="122.125" y="410.992"/><use xlink:href="#m" x="128.799" y="410.992"/><use xlink:href="#n" x="132.795" y="410.992"/><use xlink:href="#k" x="138.795" y="410.992"/><use xlink:href="#o" x="142.129" y="410.992"/><use xlink:href="#p" x="150.795" y="410.992"/><use xlink:href="#q" x="153.461" y="410.992"/><use xlink:href="#r" x="156.795" y="410.992"/><use xlink:href="#s" x="98.758" y="373.676"/><use xlink:href="#p" x="108.754" y="373.676"/><use xlink:href="#t" x="111.42" y="373.676"/><use xlink:href="#t" x="118.094" y="373.676"/><use xlink:href="#i" x="124.768" y="373.676"/><use xlink:href="#e" x="131.441" y="373.676"/><use xlink:href="#u" x="138.115" y="373.676"/><use xlink:href="#g" x="144.789" y="373.676"/><use xlink:href="#f" x="151.463" y="373.676"/><use xlink:href="#p" x="154.129" y="373.676"/><use xlink:href="#v" x="156.795" y="373.676"/><g><use xlink:href="#w" x="127.453" y="336.359"/><use xlink:href="#i" x="136.119" y="336.359"/><use xlink:href="#q" x="142.793" y="336.359"/><use xlink:href="#m" x="146.127" y="336.359"/><use xlink:href="#g" x="150.123" y="336.359"/><use xlink:href="#p" x="156.797" y="336.359"/><use xlink:href="#q" x="159.463" y="336.359"/></g><g><use xlink:href="#x" x="78.75" y="299.762"/><use xlink:href="#y" x="88.86" y="299.762"/><use xlink:href="#z" x="92.75" y="299.762"/><use xlink:href="#y" x="102.088" y="299.762"/><use xlink:href="#A" x="105.978" y="299.762"/><use xlink:href="#B" x="109.867" y="299.762"/><use xlink:href="#C" x="117.653" y="299.762"/><use xlink:href="#D" x="125.439" y="299.762"/><use xlink:href="#E" x="133.226" y="299.762"/><use xlink:href="#B" x="138.674" y="299.762"/><use xlink:href="#F" x="146.46" y="299.762"/><use xlink:href="#D" x="155.012" y="299.762"/></g><g><use xlink:href="#G" x="97.414" y="261.73"/><use xlink:href="#H" x="105.418" y="261.73"/><use xlink:href="#p" x="112.092" y="261.73"/><use xlink:href="#f" x="114.758" y="261.73"/><use xlink:href="#e" x="117.424" y="261.73"/><use xlink:href="#I" x="124.098" y="261.73"/><use xlink:href="#i" x="130.771" y="261.73"/><use xlink:href="#f" x="137.445" y="261.73"/><use xlink:href="#u" x="140.111" y="261.73"/><use xlink:href="#H" x="146.785" y="261.73"/><use xlink:href="#p" x="153.459" y="261.73"/><use xlink:href="#e" x="156.125" y="261.73"/></g><g><use xlink:href="#s" x="106.109" y="224.414"/><use xlink:href="#p" x="116.105" y="224.414"/><use xlink:href="#f" x="118.771" y="224.414"/><use xlink:href="#j" x="121.438" y="224.414"/><use xlink:href="#e" x="130.104" y="224.414"/><use xlink:href="#c" x="136.777" y="224.414"/><use xlink:href="#n" x="143.451" y="224.414"/><use xlink:href="#i" x="149.451" y="224.414"/><use xlink:href="#i" x="156.125" y="224.414"/></g><g><use xlink:href="#J" x="18.832" y="187.816"/><use xlink:href="#K" x="26.618" y="187.816"/><use xlink:href="#K" x="34.404" y="187.816"/><use xlink:href="#A" x="42.19" y="187.816"/><use xlink:href="#L" x="46.08" y="187.816"/><use xlink:href="#B" x="49.97" y="187.816"/><use xlink:href="#E" x="57.756" y="187.816"/><use xlink:href="#F" x="63.204" y="187.816"/><use xlink:href="#D" x="71.756" y="187.816"/><use xlink:href="#M" x="79.542" y="187.816"/><use xlink:href="#N" x="87.328" y="187.816"/><use xlink:href="#A" x="91.99" y="187.816"/><use xlink:href="#x" x="95.88" y="187.816"/><use xlink:href="#y" x="105.99" y="187.816"/><use xlink:href="#z" x="109.88" y="187.816"/><use xlink:href="#y" x="119.218" y="187.816"/><use xlink:href="#A" x="123.107" y="187.816"/><use xlink:href="#O" x="126.997" y="187.816"/><use xlink:href="#P" x="134.783" y="187.816"/><use xlink:href="#N" x="138.673" y="187.816"/><use xlink:href="#P" x="143.335" y="187.816"/><use xlink:href="#D" x="147.225" y="187.816"/><use xlink:href="#M" x="155.011" y="187.816"/></g><g><use xlink:href="#o" x="118.77" y="149.785"/><use xlink:href="#H" x="127.436" y="149.785"/><use xlink:href="#p" x="134.109" y="149.785"/><use xlink:href="#Q" x="136.775" y="149.785"/><use xlink:href="#e" x="142.775" y="149.785"/><use xlink:href="#R" x="149.449" y="149.785"/><use xlink:href="#g" x="156.123" y="149.785"/></g><g><use xlink:href="#S" x="106.016" y="113.184"/><use xlink:href="#B" x="117.678" y="113.184"/><use xlink:href="#T" x="125.464" y="113.184"/><use xlink:href="#P" x="134.016" y="113.184"/><use xlink:href="#M" x="137.905" y="113.184"/><use xlink:href="#U" x="145.691" y="113.184"/><use xlink:href="#V" x="154.243" y="113.184"/></g><path d="M164.988 444.012h2.742M164.988 406.695h2.742M164.988 369.379h2.742M164.988 332.066h2.742M164.988 294.75h2.742M164.988 257.434h2.742M164.988 220.121h2.742M164.988 182.805h2.742M164.988 145.488h2.742M164.988 108.176h2.742M182.766 469.14v-2.742M299.64 469.14v-2.742M416.516 469.14v-2.742" fill="none" stroke-width="1.067" stroke-linejoin="round" stroke="#333" stroke-miterlimit="10"/><g fill="#4d4d4d"><use xlink:href="#W" x="180.32" y="477.633"/></g><g fill="#4d4d4d"><use xlink:href="#X" x="294.746" y="477.633"/><use xlink:href="#W" x="299.64" y="477.633"/></g><g fill="#4d4d4d"><use xlink:href="#Y" x="411.621" y="477.633"/><use xlink:href="#W" x="416.515" y="477.633"/></g><g><use xlink:href="#Z" x="165.57" y="495.996"/><use xlink:href="#aa" x="177.576" y="495.996"/><use xlink:href="#ab" x="188.571" y="495.996"/><use xlink:href="#ac" x="193.572" y="495.996"/><use xlink:href="#ad" x="198.573" y="495.996"/><use xlink:href="#ae" x="208.584" y="495.996"/><use xlink:href="#af" x="218.595" y="495.996"/><use xlink:href="#ag" x="223.596" y="495.996"/><use xlink:href="#ac" x="233.606" y="495.996"/><use xlink:href="#ab" x="238.607" y="495.996"/><use xlink:href="#ab" x="243.608" y="495.996"/><use xlink:href="#ac" x="248.609" y="495.996"/><use xlink:href="#ah" x="253.61" y="495.996"/><use xlink:href="#ai" x="264.605" y="495.996"/><use xlink:href="#aj" x="275.601" y="495.996"/><use xlink:href="#af" x="285.611" y="495.996"/><use xlink:href="#ak" x="290.612" y="495.996"/><use xlink:href="#ae" x="301.607" y="495.996"/><use xlink:href="#al" x="311.618" y="495.996"/><use xlink:href="#af" x="318.623" y="495.996"/><use xlink:href="#am" x="323.624" y="495.996"/><use xlink:href="#an" x="333.635" y="495.996"/><use xlink:href="#ao" x="338.636" y="495.996"/><use xlink:href="#ao" x="348.646" y="495.996"/><use xlink:href="#ao" x="358.657" y="495.996"/><use xlink:href="#an" x="368.668" y="495.996"/><use xlink:href="#ao" x="373.669" y="495.996"/><use xlink:href="#ao" x="383.68" y="495.996"/><use xlink:href="#ao" x="393.69" y="495.996"/><use xlink:href="#af" x="403.701" y="495.996"/><use xlink:href="#ak" x="408.702" y="495.996"/><use xlink:href="#aa" x="419.697" y="495.996"/><use xlink:href="#ak" x="430.692" y="495.996"/><use xlink:href="#ap" x="441.688" y="495.996"/><use xlink:href="#ab" x="452.683" y="495.996"/><use xlink:href="#aq" x="457.684" y="495.996"/><use xlink:href="#ar" x="467.694" y="495.996"/><use xlink:href="#ac" x="473.688" y="495.996"/><use xlink:href="#aa" x="478.689" y="495.996"/><use xlink:href="#ah" x="489.685" y="495.996"/></g><g><use xlink:href="#as" x="151.602" y="18.363"/><use xlink:href="#at" x="162.597" y="18.363"/><use xlink:href="#ae" x="173.592" y="18.363"/><use xlink:href="#af" x="183.603" y="18.363"/><use xlink:href="#al" x="188.604" y="18.363"/><use xlink:href="#aq" x="195.608" y="18.363"/><use xlink:href="#ar" x="205.619" y="18.363"/><use xlink:href="#ae" x="211.613" y="18.363"/><use xlink:href="#af" x="221.624" y="18.363"/><use xlink:href="#aa" x="226.625" y="18.363"/><use xlink:href="#au" x="237.62" y="18.363"/><use xlink:href="#af" x="243.614" y="18.363"/><use xlink:href="#au" x="248.615" y="18.363"/><use xlink:href="#aq" x="254.609" y="18.363"/><use xlink:href="#ar" x="264.62" y="18.363"/><use xlink:href="#aq" x="270.614" y="18.363"/><use xlink:href="#ab" x="280.625" y="18.363"/><use xlink:href="#af" x="285.626" y="18.363"/><use xlink:href="#aa" x="290.627" y="18.363"/><use xlink:href="#au" x="301.622" y="18.363"/><use xlink:href="#au" x="307.616" y="18.363"/><use xlink:href="#ac" x="313.61" y="18.363"/><use xlink:href="#ad" x="318.611" y="18.363"/><use xlink:href="#ae" x="328.622" y="18.363"/><use xlink:href="#al" x="338.633" y="18.363"/><use xlink:href="#af" x="345.638" y="18.363"/><use xlink:href="#ac" x="350.639" y="18.363"/><use xlink:href="#ah" x="355.64" y="18.363"/><use xlink:href="#av" x="366.635" y="18.363"/><use xlink:href="#aa" x="376.646" y="18.363"/><use xlink:href="#ab" x="387.641" y="18.363"/><use xlink:href="#av" x="392.642" y="18.363"/><use xlink:href="#ae" x="402.652" y="18.363"/><use xlink:href="#aw" x="412.663" y="18.363"/><use xlink:href="#af" x="423.658" y="18.363"/><use xlink:href="#aj" x="428.659" y="18.363"/><use xlink:href="#at" x="438.67" y="18.363"/><use xlink:href="#aa" x="449.665" y="18.363"/><use xlink:href="#aa" x="460.66" y="18.363"/><use xlink:href="#ar" x="471.655" y="18.363"/><use xlink:href="#ac" x="477.649" y="18.363"/><use xlink:href="#ah" x="482.65" y="18.363"/><use xlink:href="#ai" x="493.646" y="18.363"/><use xlink:href="#aj" x="504.641" y="18.363"/></g><g><use xlink:href="#av" x="141.031" y="37.805"/><use xlink:href="#aq" x="151.042" y="37.805"/><use xlink:href="#al" x="161.053" y="37.805"/><use xlink:href="#ac" x="168.058" y="37.805"/><use xlink:href="#ae" x="173.059" y="37.805"/><use xlink:href="#aj" x="183.069" y="37.805"/><use xlink:href="#af" x="193.08" y="37.805"/><use xlink:href="#aw" x="198.081" y="37.805"/><use xlink:href="#al" x="209.076" y="37.805"/><use xlink:href="#aq" x="216.081" y="37.805"/><use xlink:href="#aj" x="226.092" y="37.805"/><use xlink:href="#ar" x="236.103" y="37.805"/><use xlink:href="#ac" x="242.097" y="37.805"/><use xlink:href="#ad" x="247.098" y="37.805"/><use xlink:href="#aq" x="257.108" y="37.805"/><use xlink:href="#ab" x="267.119" y="37.805"/><use xlink:href="#ab" x="272.12" y="37.805"/><use xlink:href="#ax" x="277.121" y="37.805"/><use xlink:href="#af" x="287.132" y="37.805"/><use xlink:href="#aq" x="292.133" y="37.805"/><use xlink:href="#ad" x="302.144" y="37.805"/><use xlink:href="#al" x="312.154" y="37.805"/><use xlink:href="#aa" x="319.159" y="37.805"/><use xlink:href="#aj" x="330.154" y="37.805"/><use xlink:href="#aj" x="340.165" y="37.805"/><use xlink:href="#af" x="350.176" y="37.805"/><use xlink:href="#ak" x="355.177" y="37.805"/><use xlink:href="#aa" x="366.172" y="37.805"/><use xlink:href="#ab" x="377.167" y="37.805"/><use xlink:href="#ac" x="382.168" y="37.805"/><use xlink:href="#ad" x="387.169" y="37.805"/><use xlink:href="#ae" x="397.18" y="37.805"/><use xlink:href="#af" x="407.19" y="37.805"/><use xlink:href="#aw" x="412.191" y="37.805"/><use xlink:href="#ae" x="423.187" y="37.805"/><use xlink:href="#ak" x="433.197" y="37.805"/><use xlink:href="#aq" x="444.192" y="37.805"/><use xlink:href="#al" x="454.203" y="37.805"/><use xlink:href="#ar" x="461.208" y="37.805"/><use xlink:href="#ay" x="467.202" y="37.805"/><use xlink:href="#ae" x="483.207" y="37.805"/><use xlink:href="#ah" x="493.218" y="37.805"/><use xlink:href="#ar" x="504.213" y="37.805"/><use xlink:href="#aj" x="510.207" y="37.805"/><use xlink:href="#az" x="520.218" y="37.805"/></g><g><use xlink:href="#aA" x="172.563" y="57.246"/><use xlink:href="#aa" x="183.558" y="57.246"/><use xlink:href="#al" x="194.553" y="57.246"/><use xlink:href="#af" x="201.558" y="57.246"/><use xlink:href="#ae" x="206.559" y="57.246"/><use xlink:href="#aB" x="216.569" y="57.246"/><use xlink:href="#aq" x="226.58" y="57.246"/><use xlink:href="#ay" x="236.591" y="57.246"/><use xlink:href="#ak" x="252.596" y="57.246"/><use xlink:href="#ab" x="263.591" y="57.246"/><use xlink:href="#ae" x="268.592" y="57.246"/><use xlink:href="#an" x="278.603" y="57.246"/><use xlink:href="#af" x="283.604" y="57.246"/><use xlink:href="#aq" x="288.604" y="57.246"/><use xlink:href="#af" x="298.615" y="57.246"/><use xlink:href="#aj" x="303.616" y="57.246"/><use xlink:href="#aq" x="313.627" y="57.246"/><use xlink:href="#ay" x="323.638" y="57.246"/><use xlink:href="#ak" x="339.643" y="57.246"/><use xlink:href="#ab" x="350.638" y="57.246"/><use xlink:href="#ae" x="355.639" y="57.246"/><use xlink:href="#af" x="365.649" y="57.246"/><use xlink:href="#aa" x="370.65" y="57.246"/><use xlink:href="#au" x="381.646" y="57.246"/><use xlink:href="#af" x="387.64" y="57.246"/><use xlink:href="#aq" x="392.641" y="57.246"/><use xlink:href="#af" x="402.651" y="57.246"/><use xlink:href="#au" x="407.652" y="57.246"/><use xlink:href="#ae" x="413.646" y="57.246"/><use xlink:href="#aC" x="423.657" y="57.246"/><use xlink:href="#af" x="437.658" y="57.246"/><use xlink:href="#ad" x="442.659" y="57.246"/><use xlink:href="#ac" x="452.67" y="57.246"/><use xlink:href="#ar" x="457.671" y="57.246"/><use xlink:href="#ac" x="463.665" y="57.246"/><use xlink:href="#ae" x="468.666" y="57.246"/><use xlink:href="#aj" x="478.677" y="57.246"/><use xlink:href="#an" x="488.688" y="57.246"/></g><g><use xlink:href="#ap" x="121.559" y="76.684"/><use xlink:href="#aj" x="132.554" y="76.684"/><use xlink:href="#ac" x="142.564" y="76.684"/><use xlink:href="#ah" x="147.565" y="76.684"/><use xlink:href="#ai" x="158.561" y="76.684"/><use xlink:href="#af" x="169.556" y="76.684"/><use xlink:href="#aw" x="174.557" y="76.684"/><use xlink:href="#aq" x="185.552" y="76.684"/><use xlink:href="#ar" x="195.563" y="76.684"/><use xlink:href="#aq" x="201.557" y="76.684"/><use xlink:href="#af" x="211.567" y="76.684"/><use xlink:href="#ad" x="216.568" y="76.684"/><use xlink:href="#aa" x="226.579" y="76.684"/><use xlink:href="#av" x="237.574" y="76.684"/><use xlink:href="#ae" x="247.585" y="76.684"/><use xlink:href="#al" x="257.596" y="76.684"/><use xlink:href="#ac" x="264.601" y="76.684"/><use xlink:href="#ah" x="269.602" y="76.684"/><use xlink:href="#ai" x="280.597" y="76.684"/><use xlink:href="#af" x="291.592" y="76.684"/><use xlink:href="#aD" x="296.593" y="76.684"/><use xlink:href="#aq" x="306.604" y="76.684"/><use xlink:href="#ah" x="316.614" y="76.684"/><use xlink:href="#an" x="327.609" y="76.684"/><use xlink:href="#af" x="332.61" y="76.684"/><use xlink:href="#aE" x="337.611" y="76.684"/><use xlink:href="#ao" x="347.622" y="76.684"/><use xlink:href="#am" x="357.633" y="76.684"/><use xlink:href="#aF" x="367.644" y="76.684"/><use xlink:href="#af" x="377.654" y="76.684"/><use xlink:href="#ar" x="382.655" y="76.684"/><use xlink:href="#at" x="388.649" y="76.684"/><use xlink:href="#al" x="399.645" y="76.684"/><use xlink:href="#aa" x="406.649" y="76.684"/><use xlink:href="#ap" x="417.645" y="76.684"/><use xlink:href="#ai" x="428.64" y="76.684"/><use xlink:href="#at" x="439.635" y="76.684"/><use xlink:href="#af" x="450.63" y="76.684"/><use xlink:href="#aG" x="455.631" y="76.684"/><use xlink:href="#ae" x="468.63" y="76.684"/><use xlink:href="#ad" x="478.641" y="76.684"/><use xlink:href="#an" x="488.651" y="76.684"/><use xlink:href="#af" x="493.652" y="76.684"/><use xlink:href="#aE" x="498.653" y="76.684"/><use xlink:href="#ao" x="508.664" y="76.684"/><use xlink:href="#am" x="518.675" y="76.684"/><use xlink:href="#aH" x="528.686" y="76.684"/><use xlink:href="#aI" x="538.696" y="76.684"/></g></svg>