<?xml version="1.0" encoding="UTF-8"?>
<svg xmlns="http://www.w3.org/2000/svg" xmlns:xlink="http://www.w3.org/1999/xlink" viewBox="0 0 512 256">
  <defs>
    <style type="text/css"><![CDATA[
    line, polyline, path, rect, circle {
      fill: none;
      stroke: #000000;
      stroke-linecap: round;
      stroke-linejoin: round;
      stroke-miterlimit: 10.00;
    }

    text {
      font: 500 11.2px 'Alegreya Sans', Candara, Ubuntu, 'Lucida Sans', 'Lucida Grande', Tahoma, 'Droid Sans', sans-serif;
    }

    .grid-line {
      stroke: #CCCCCC;
      stroke-linecap: butt;
    }

    .grid-line.minor {
      stroke-width: 0.53;
    }

    .grid-line.major {
      stroke-width: 1.07;
    }
  ]]></style>
  </defs>
  <defs>
    <clipPath id="cp1">
      <rect x="40.32" y="5.48" width="466.20" height="191.19"/>
    </clipPath>
  </defs>
  <polyline class="grid-line minor" points="40.32,172.67 506.52,172.67" clip-path="url(#cp1)"/>
  <polyline class="grid-line minor" points="40.32,119.18 506.52,119.18" clip-path="url(#cp1)"/>
  <polyline class="grid-line minor" points="40.32,65.70 506.52,65.70" clip-path="url(#cp1)"/>
  <polyline class="grid-line minor" points="40.32,12.21 506.52,12.21" clip-path="url(#cp1)"/>
  <polyline class="grid-line minor" points="137.20,196.67 137.20,5.48" clip-path="url(#cp1)"/>
  <polyline class="grid-line minor" points="288.56,196.67 288.56,5.48" clip-path="url(#cp1)"/>
  <polyline class="grid-line minor" points="439.92,196.67 439.92,5.48" clip-path="url(#cp1)"/>
  <polyline class="grid-line major" points="40.32,145.93 506.52,145.93" clip-path="url(#cp1)"/>
  <polyline class="grid-line major" points="40.32,92.44 506.52,92.44" clip-path="url(#cp1)"/>
  <polyline class="grid-line major" points="40.32,38.95 506.52,38.95" clip-path="url(#cp1)"/>
  <polyline class="grid-line major" points="61.51,196.67 61.51,5.48" clip-path="url(#cp1)"/>
  <polyline class="grid-line major" points="212.88,196.67 212.88,5.48" clip-path="url(#cp1)"/>
  <polyline class="grid-line major" points="364.24,196.67 364.24,5.48" clip-path="url(#cp1)"/>
  <polyline points="61.51,166.02 66.88,166.09 72.24,166.21 77.61,166.35 82.97,166.53 88.34,166.72 93.70,166.89 99.07,166.75 104.43,166.38 109.80,165.96 115.16,165.66 120.53,165.67 125.89,166.16 131.26,167.31 136.62,169.30 141.99,171.52 147.35,172.64 152.72,172.25 158.08,169.94 163.45,165.31 168.81,158.16 174.17,152.51 179.54,150.57 184.90,150.83 190.27,151.26 195.63,151.95 201.00,151.48 206.36,149.68 211.73,146.73 217.09,142.25 222.46,137.35 227.82,132.93 233.19,129.58 238.55,129.92 243.92,131.25 249.28,126.24 254.65,120.77 260.01,114.98 265.38,108.93 270.74,104.67 276.10,94.07 281.47,79.79 286.83,77.79 292.20,79.15 297.56,79.35 302.93,74.21 308.29,71.69 313.66,70.53 319.02,69.53 324.39,64.57 329.75,64.47 335.12,66.06 340.48,62.83 345.85,58.05 351.21,56.06 356.58,58.07 361.94,54.69 367.31,50.70 372.67,45.87 378.03,37.76 383.40,33.48 388.76,30.78 394.13,27.71 399.49,24.52 404.86,19.20 410.22,14.17 415.59,17.96 420.95,19.70 426.32,20.03 431.68,20.47 437.05,24.73 442.41,27.74 447.78,28.55 453.14,31.83 458.51,30.67 463.87,28.30 469.24,30.14 474.60,34.35 479.97,38.42 485.33,42.04" style="stroke-width: 2.13; stroke-linecap: butt;" clip-path="url(#cp1)"/>
  <polyline points="61.51,156.89 66.88,156.38 72.24,155.89 77.61,155.42 82.97,154.97 88.34,154.53 93.70,154.10 99.07,153.70 104.43,153.32 109.80,152.95 115.16,152.60 120.53,152.27 125.89,151.94 131.26,151.58 136.62,151.18 141.99,150.76 147.35,150.36 152.72,149.98 158.08,149.65 163.45,149.32 168.81,148.98 174.17,148.64 179.54,148.29 184.90,147.93 190.27,147.57 195.63,147.17 201.00,146.77 206.36,146.38 211.73,146.00 217.09,145.63 222.46,145.26 227.82,144.90 233.19,144.54 238.55,144.20 243.92,143.85 249.28,143.50 254.65,143.14 260.01,142.78 265.38,142.41 270.74,142.05 276.10,141.67 281.47,141.27 286.83,140.84 292.20,140.39 297.56,139.93 302.93,139.45 308.29,138.99 313.66,138.54 319.02,138.12 324.39,137.71 329.75,137.30 335.12,136.89 340.48,136.47 345.85,136.16 351.21,135.67 356.58,134.86 361.94,133.79 367.31,132.87 372.67,132.13 378.03,131.81 383.40,131.40 388.76,130.97 394.13,130.53 399.49,130.07 404.86,129.60 410.22,129.13 415.59,128.65 420.95,128.16 426.32,127.70 431.68,127.29 437.05,126.89 442.41,126.49 447.78,126.07 453.14,125.65 458.51,125.28 463.87,124.90 469.24,124.37 474.60,123.83 479.97,123.26 485.33,122.66" style="stroke-width: 2.13; stroke: #E69F00; stroke-dasharray: 2.85,8.54; stroke-linecap: butt;" clip-path="url(#cp1)"/>
  <polyline points="61.51,187.92 66.69,187.98 71.86,187.84 77.03,187.50 82.21,186.84 87.38,186.03 92.55,185.10 97.73,184.22 102.90,183.21 108.07,181.90 113.25,179.87 118.42,177.66 123.59,175.40 128.77,173.29 133.94,171.14 139.11,169.19 144.29,167.50 149.46,166.58 154.63,165.52 159.80,164.21 164.98,161.76 170.15,159.91 175.32,158.72 180.50,158.88 185.67,158.88 190.84,158.50 196.02,156.72 201.19,153.85 206.36,150.50 211.54,147.12 216.71,145.52 221.88,145.27 227.06,146.83 232.23,148.19 237.40,149.10 242.58,149.20 247.75,147.05 252.92,144.51 258.09,141.87 263.27,140.14 268.44,138.75 273.61,137.60 278.79,134.50 283.96,130.95 289.13,127.25 294.31,124.23 299.48,122.66 304.65,122.29 309.83,122.88 315.00,123.95 320.17,125.59 325.35,127.93 330.52,130.10 335.69,132.30 340.86,134.49 346.04,137.11 351.21,139.61 356.38,141.97 361.56,142.71 366.73,142.78 371.90,142.31 377.08,142.65 382.25,143.41 387.42,144.41 392.60,145.01 397.77,144.71 402.94,143.88 408.12,142.84 413.29,142.49 418.46,142.76 423.64,143.83 428.81,145.41 433.98,147.27 439.15,149.39 444.33,150.59 449.50,151.28 454.67,151.38 459.85,151.55 465.02,151.68 470.19,151.76" style="stroke-width: 2.13; stroke: #56B4E9; stroke-dasharray: 42.68,2.85; stroke-linecap: butt;" clip-path="url(#cp1)"/>
  <polyline points="61.51,185.72 66.69,185.39 71.86,184.84 77.03,184.06 82.21,182.92 87.38,181.91 92.55,180.96 97.73,180.20 102.90,179.17 108.07,177.83 113.25,175.88 118.42,173.84 123.59,171.76 128.77,169.71 133.94,167.71 139.11,166.29 144.29,165.74 149.46,166.09 154.63,165.65 159.80,164.11 164.98,160.38 170.15,156.96 175.32,154.15 180.50,153.77 185.67,154.19 190.84,154.96 196.02,154.61 201.19,152.60 206.36,149.81 211.54,146.99 216.71,145.82 221.88,145.95 227.06,147.78 232.23,149.82 237.40,151.42 242.58,152.12 247.75,151.11 252.92,149.59 258.09,147.76 263.27,146.50 268.44,145.44 273.61,144.60 278.79,143.97 283.96,143.32 289.13,142.77 294.31,142.57 299.48,142.99 304.65,143.81 309.83,144.94 315.00,145.43 320.17,145.71 325.35,145.98 330.52,146.44 335.69,147.16 340.86,148.20 346.04,149.97 351.21,151.82 356.38,153.65 361.56,154.18 366.73,154.07 371.90,153.38 377.08,153.04 382.25,152.99 387.42,153.19 392.60,153.50 397.77,153.91 402.94,154.38 408.12,154.85 413.29,155.20 418.46,155.61 423.64,156.23 428.81,157.15 433.98,158.08 439.15,158.89 444.33,159.13 449.50,159.34 454.67,159.66 459.85,160.40 465.02,161.43 470.19,162.75" style="stroke-width: 2.13; stroke: #009E73; stroke-dasharray: 11.38,11.38; stroke-linecap: butt;" clip-path="url(#cp1)"/>
  <rect x="40.32" y="5.48" width="466.20" height="191.19" style="stroke-width: 1.07; stroke: #333333;" clip-path="url(#cp1)"/>
  <defs>
    <clipPath id="cp2">
      <rect x="0.00" y="0.00" width="512.00" height="256.00"/>
    </clipPath>
  </defs>
  <g clip-path="url(#cp2)">
    <text x="19.70" y="149.52" style="fill: #4D4D4D;" textLength="15.70px" lengthAdjust="spacingAndGlyphs">100</text>
  </g>
  <g clip-path="url(#cp2)">
    <text x="18.45" y="96.03" style="fill: #4D4D4D;" textLength="16.94px" lengthAdjust="spacingAndGlyphs">200</text>
  </g>
  <g clip-path="url(#cp2)">
    <text x="18.92" y="42.54" style="fill: #4D4D4D;" textLength="16.47px" lengthAdjust="spacingAndGlyphs">300</text>
  </g>
  <polyline points="37.58,145.93 40.32,145.93" style="stroke-width: 1.07; stroke: #333333; stroke-linecap: butt;" clip-path="url(#cp2)"/>
  <polyline points="37.58,92.44 40.32,92.44" style="stroke-width: 1.07; stroke: #333333; stroke-linecap: butt;" clip-path="url(#cp2)"/>
  <polyline points="37.58,38.95 40.32,38.95" style="stroke-width: 1.07; stroke: #333333; stroke-linecap: butt;" clip-path="url(#cp2)"/>
  <polyline points="61.51,199.41 61.51,196.67" style="stroke-width: 1.07; stroke: #333333; stroke-linecap: butt;" clip-path="url(#cp2)"/>
  <polyline points="212.88,199.41 212.88,196.67" style="stroke-width: 1.07; stroke: #333333; stroke-linecap: butt;" clip-path="url(#cp2)"/>
  <polyline points="364.24,199.41 364.24,196.67" style="stroke-width: 1.07; stroke: #333333; stroke-linecap: butt;" clip-path="url(#cp2)"/>
  <g clip-path="url(#cp2)">
    <text x="51.29" y="208.79" style="fill: #4D4D4D;" textLength="20.46px" lengthAdjust="spacingAndGlyphs">1960</text>
  </g>
  <g clip-path="url(#cp2)">
    <text x="202.61" y="208.79" style="fill: #4D4D4D;" textLength="20.54px" lengthAdjust="spacingAndGlyphs">1980</text>
  </g>
  <g clip-path="url(#cp2)">
    <text x="352.83" y="208.79" style="fill: #4D4D4D;" textLength="22.82px" lengthAdjust="spacingAndGlyphs">2000</text>
  </g>
  <g clip-path="url(#cp2)">
    <text transform="translate(13.18,125.28) rotate(-90)" textLength="48.41px" lengthAdjust="spacingAndGlyphs">1980 = 100</text>
  </g>
  <line x1="64.25" y1="236.4" x2="78.08" y2="236.4" style="stroke-width: 2.13; stroke-linecap: butt;" clip-path="url(#cp2)"/>
  <line x1="208.52" y1="236.4" x2="222.34" y2="236.4" style="stroke-width: 2.13; stroke: #E69F00; stroke-dasharray: 2.85,8.54; stroke-linecap: butt;" clip-path="url(#cp2)"/>
  <line x1="313.07" y1="236.4" x2="326.90" y2="236.4" style="stroke-width: 2.13; stroke: #56B4E9; stroke-dasharray: 42.68,2.85; stroke-linecap: butt;" clip-path="url(#cp2)"/>
  <line x1="403.44" y1="236.4" x2="417.27" y2="236.4" style="stroke-width: 2.13; stroke: #009E73; stroke-dasharray: 11.38,11.38; stroke-linecap: butt;" clip-path="url(#cp2)"/>
  <g clip-path="url(#cp2)">
    <text x="86.78" y="240" lengthAdjust="spacingAndGlyphs">New court committments</text>
  </g>
  <g clip-path="url(#cp2)">
    <text x="231.05" y="240" lengthAdjust="spacingAndGlyphs">Total population</text>
  </g>
  <g clip-path="url(#cp2)">
    <text x="335.60" y="240" lengthAdjust="spacingAndGlyphs">Violent crime</text>
  </g>
  <g clip-path="url(#cp2)">
    <text x="425.97" y="240" lengthAdjust="spacingAndGlyphs">Property crime</text>
  </g>
</svg>
